<svg xmlns="http://www.w3.org/2000/svg" viewBox="0 0 16 16" shape-rendering="crispEdges">
  <!-- Original pixel-art interpretation of a "divine orb" concept (not official PoE2 art):
       black-outlined pixel diamond with a white facet highlight -->
  <path fill="#000000" d="M7 1h2v1h1v1h1v1h1v1h1v1h1v2h-1v1h-1v1h-1v1h-1v1h-1v1H7v-1H6v-1H5v-1H4v-1H3V9H2V7h1V6h1V5h1V4h1V3h1V2h1z"/>
  <path fill="#ffffff" d="M7 3h2v1h1v1h1v1h1v2h-1v1h-1v1h-1v1H7v-1H6v-1H5V9H4V7h1V6h1V5h1z"/>
  <path fill="#000000" d="M7 5h1v1H7zM6 6h1v1H6z"/>
</svg>
